<svg width="512" height="512" viewBox="0 0 512 512" fill="none" xmlns="http://www.w3.org/2000/svg">
<rect width="512" height="512" rx="24" fill="#243837"/>
<path d="M352.938 115C377.273 115 397 134.727 397 159.062V264.812C397 289.148 377.273 308.875 352.938 308.875C328.602 308.875 308.875 289.148 308.875 264.812V256C309.575 252.881 309.756 249.637 309.756 246.306C309.756 221.971 290.029 202.244 265.694 202.244C262.363 202.244 259.119 202.425 256 203.125H247.188C222.852 203.125 203.125 183.398 203.125 159.062C203.125 134.727 222.852 115 247.188 115H352.938Z" fill="#B1FA63"/>
<path d="M159.062 397C134.727 397 115 377.273 115 352.938V247.188C115 222.852 134.727 203.125 159.062 203.125C183.398 203.125 203.125 222.852 203.125 247.188V256C202.425 259.119 202.244 262.363 202.244 265.694C202.244 290.029 221.971 309.756 246.306 309.756C249.637 309.756 252.881 309.575 256 308.875H264.812C289.148 308.875 308.875 328.602 308.875 352.938C308.875 377.273 289.148 397 264.812 397H159.062Z" fill="#B1FA63"/>
</svg>
