<svg width="256" height="256" viewBox="0 0 256 256" fill="none" xmlns="http://www.w3.org/2000/svg">
<rect width="256" height="256" rx="18" fill="#243837"/>
<path d="M122 60.2217C134 59.7229 154.912 60.2217 176 60.2217C189.564 64.2103 193.03 69.7427 196 82.1698V132.052C192.831 145.345 188.518 150.411 175 154H170C157.836 151.216 149 142.527 149 133.05C149 129.432 148.995 128.121 148.991 127.724C148.982 128.265 148.986 127.2 148.991 127.724C148.993 127.6 148.996 127.393 149 127.064C147.089 119.813 145.439 116.044 139 111.101C132.944 107.953 129.854 107.074 123 107.111C113.592 104.941 112.406 103.566 110 101.125L104 94.1415L102 87.158V79.1769C102 73.191 110 60.7205 122 60.2217Z" fill="#B1FA63"/>
<path d="M134 195.778C122 196.277 101.088 195.778 80 195.778C66.4359 191.79 62.9701 186.257 60 173.83L60 123.948C63.1688 110.655 67.4821 105.589 81 102H86C98.1638 104.784 107 113.473 107 122.95C107 126.568 107.005 127.879 107.009 128.276C107.018 127.735 107.014 128.8 107.009 128.276C107.007 128.4 107.004 128.607 107 128.936C108.911 136.187 110.561 139.956 117 144.899C123.056 148.047 126.146 148.926 133 148.889C142.408 151.059 143.594 152.434 146 154.875L152 161.858L154 168.842V176.823C154 182.809 146 195.279 134 195.778Z" fill="#B1FA63"/>
</svg>
